<?xml version="1.0" standalone="no"?>
<!DOCTYPE svg PUBLIC "-//W3C//DTD SVG 20010904//EN"
 "http://www.w3.org/TR/2001/REC-SVG-20010904/DTD/svg10.dtd">
<svg version="1.0" xmlns="http://www.w3.org/2000/svg"
 width="500.000000pt" height="500.000000pt" viewBox="0 0 500.000000 500.000000"
 preserveAspectRatio="xMidYMid meet">
<metadata>
Created by potrace 1.14, written by Peter Selinger 2001-2017
</metadata>
<g transform="translate(0.000000,500.000000) scale(0.100000,-0.100000)"
fill="#000000" stroke="none">
<path d="M2198 4918 c-48 -46 -79 -63 -133 -73 -22 -4 -44 -10 -50 -15 -5 -4
-30 -13 -55 -20 -57 -15 -121 -45 -188 -87 -29 -18 -55 -33 -58 -33 -12 0
-152 -117 -184 -154 -19 -22 -47 -52 -62 -66 -43 -41 -192 -273 -189 -295 1
-3 -6 -21 -14 -41 -8 -20 -17 -46 -20 -58 -15 -69 -27 -100 -68 -183 -26 -50
-67 -143 -92 -205 -59 -145 -94 -206 -168 -295 -33 -40 -73 -91 -89 -115 -15
-24 -42 -57 -60 -75 -66 -65 -37 -187 52 -221 29 -11 63 11 95 61 16 25 20 39
24 95 2 30 19 8 25 -33 4 -24 11 -47 15 -50 11 -6 23 -66 27 -130 3 -68 36
-149 86 -216 24 -31 52 -69 63 -85 28 -39 123 -134 134 -134 6 0 37 -16 70
-35 68 -40 121 -61 177 -69 21 -4 40 -8 42 -10 2 -3 35 4 73 15 87 24 113 45
199 161 l50 67 50 -15 c27 -8 67 -16 87 -19 66 -7 123 -17 268 -50 36 -8 75
-27 75 -36 0 -5 5 -9 11 -9 11 0 23 -11 48 -42 11 -15 9 -22 -17 -55 -20 -26
-29 -50 -30 -75 0 -21 -1 -41 -1 -46 -1 -4 -56 -8 -123 -8 -68 0 -141 -4 -163
-7 -39 -7 -175 -19 -225 -20 -29 0 -98 9 -185 24 -33 6 -81 13 -108 15 -26 2
-51 5 -55 6 -24 7 -83 -27 -102 -58 -16 -25 -29 -34 -51 -35 -37 -2 -42 -3
-56 -12 -25 -15 -35 4 -15 27 39 44 47 87 25 134 -27 57 -62 87 -107 91 -22 1
-50 7 -63 12 -14 5 -35 9 -49 9 -27 0 -31 12 -10 29 8 7 13 20 11 29 -2 9 -4
22 -4 29 -1 7 -16 10 -43 9 -31 -3 -48 -11 -65 -30 -13 -15 -23 -25 -23 -22 0
3 -10 -5 -23 -17 -12 -12 -36 -34 -53 -48 -17 -14 -36 -35 -42 -46 -6 -11 -26
-30 -45 -43 -38 -26 -71 -79 -96 -154 -37 -107 -13 -168 95 -249 l64 -48 -5
-46 c-3 -25 -10 -52 -17 -60 -19 -24 -14 -113 10 -158 31 -60 80 -93 152 -102
19 -2 41 -6 47 -8 7 -3 13 -1 13 3 0 4 10 8 23 9 27 3 47 8 70 18 20 8 60 89
71 142 11 48 33 49 96 5 46 -33 78 -50 110 -57 71 -17 143 -20 355 -10 261 11
332 8 360 -15 12 -10 13 -78 2 -115 -5 -18 -13 -60 -22 -120 -2 -11 -4 -20 -5
-20 -1 0 -3 -16 -5 -35 -2 -19 -6 -51 -8 -71 -3 -20 2 -57 12 -85 31 -88 15
-152 -38 -155 -9 0 -23 -2 -31 -4 -88 -22 -121 -26 -185 -27 -60 -1 -100 -17
-119 -47 -5 -8 -27 -32 -49 -52 -42 -41 -42 -60 1 -57 21 1 92 -9 122 -17 3
-1 18 -5 33 -10 49 -13 130 -12 187 3 30 8 60 15 65 16 6 1 15 4 20 8 9 5 69
20 80 19 2 0 20 6 39 14 51 22 55 20 78 -35 11 -28 25 -50 29 -50 5 0 9 -6 9
-14 0 -25 95 -127 166 -176 52 -37 152 -87 184 -93 36 -7 77 -24 84 -35 7 -11
-16 -22 -59 -27 -16 -3 -61 -14 -100 -25 -38 -11 -75 -22 -82 -23 -60 -14
-138 -101 -149 -168 -7 -40 15 -67 62 -75 16 -3 65 -14 109 -24 163 -38 160
-38 355 -46 205 -9 310 -9 520 0 280 13 326 18 374 35 11 5 24 9 29 9 33 2 74
18 95 37 29 27 34 88 12 155 -17 51 -27 65 -88 124 -39 37 -122 92 -122 81 0
-2 -16 3 -35 11 -19 8 -35 12 -35 9 0 -3 -11 2 -25 11 -20 13 -23 20 -14 35 5
10 8 19 5 19 -3 0 1 21 9 48 20 69 26 124 29 247 4 143 -28 263 -86 327 -21
22 -38 45 -39 52 -1 26 -9 102 -12 116 -11 54 -75 123 -129 142 -19 7 -28 17
-29 31 -1 44 -35 165 -51 185 -6 6 -7 12 -3 12 4 0 2 7 -5 15 -7 8 -9 15 -5
15 4 0 -2 15 -13 34 -14 24 -20 51 -19 97 0 93 -11 147 -46 210 -35 65 -65 86
-121 86 -38 0 -40 1 -52 44 -7 24 -13 45 -13 47 0 1 -3 23 -7 48 -4 31 -16 54
-36 75 -17 16 -33 28 -36 25 -12 -12 -40 15 -35 34 4 16 84 95 128 128 29 21
137 72 185 87 30 9 62 19 70 22 8 4 18 7 23 8 4 2 8 3 10 5 1 1 9 3 17 5 8 1
54 17 103 33 48 17 88 31 90 30 1 0 22 5 47 12 97 26 168 53 225 88 74 44 198
170 243 245 32 53 90 184 97 217 8 44 19 163 20 220 0 58 -3 91 -19 195 -3 17
-21 80 -41 140 -51 160 -139 282 -300 417 -108 91 -270 163 -434 194 -46 9
-62 18 -104 63 -67 71 -141 104 -231 105 -63 0 -142 -19 -181 -44 -13 -8 -32
-7 -81 8 -50 14 -71 37 -79 81 -13 72 -107 148 -152 122 -12 -6 -3 -15 33 -38
46 -28 84 -76 72 -89 -4 -3 -32 7 -65 23 -32 15 -60 28 -63 28 -3 0 -15 6 -27
13 -12 6 -45 18 -75 26 -29 8 -68 19 -85 25 -18 5 -33 7 -33 4 0 -3 -6 0 -14
6 -7 6 -30 13 -49 14 -20 2 -39 6 -43 9 -3 4 -13 4 -22 0 -15 -5 -15 -3 -3 11
7 9 28 19 47 23 58 11 53 34 -8 38 -23 2 -40 -7 -70 -36z m-1103 -1663 c20
-16 22 -27 29 -135 2 -36 8 -83 15 -106 6 -22 13 -56 15 -75 3 -19 5 -34 6
-34 1 0 3 -10 6 -22 6 -32 49 -126 65 -143 8 -8 26 -31 41 -51 25 -34 25 -36
7 -47 -24 -16 -29 -15 -29 3 0 8 -5 15 -10 15 -6 0 -13 8 -17 18 -4 9 -26 36
-50 59 -24 22 -43 48 -43 56 0 9 -5 19 -10 22 -6 4 -8 10 -6 14 5 8 -22 110
-34 126 -4 6 -7 33 -8 60 -1 48 -5 79 -18 152 -7 36 3 103 14 103 4 0 16 -7
27 -15z"/>
</g>
</svg>
